<svg xmlns="http://www.w3.org/2000/svg" xmlns:xlink="http://www.w3.org/1999/xlink" xmlns:s="https://github.com/nturley/netlistsvg" width="467" height="428">
  <style>svg {
    stroke:#000;
    fill:none;
  }
  text {
    fill:#000;
    stroke:none;
    font-size:10px;
    font-weight: bold;
    font-family: "Courier New", monospace;
  }
  .nodelabel {
    text-anchor: middle;
  }
  .inputPortLabel {
    text-anchor: end;
  }
  .splitjoinBody {
    fill:#000;
  }</style>
  <g s:type="nand" transform="translate(145,138)" s:width="30" s:height="25" id="cell_$abc$257$auto$blifparse.cc:397:parse_blif$258">
    <s:alias val="$nand"/>
    <s:alias val="$logic_nand"/>
    <s:alias val="$_NAND_"/>
    <s:alias val="$_ANDNOT_"/>
    <path d="M0,0 L0,25 L15,25 A15 12.5 0 0 0 15,0 Z" class="cell_$abc$257$auto$blifparse.cc:397:parse_blif$258"/>
    <circle cx="34" cy="12.5" r="3" class="cell_$abc$257$auto$blifparse.cc:397:parse_blif$258"/>
    <g s:x="0" s:y="5" s:pid="A"/>
    <g s:x="0" s:y="20" s:pid="B"/>
    <g s:x="36" s:y="12.5" s:pid="Y"/>
  </g>
  <g s:type="nand" transform="translate(145,195)" s:width="30" s:height="25" id="cell_$abc$257$auto$blifparse.cc:397:parse_blif$259">
    <s:alias val="$nand"/>
    <s:alias val="$logic_nand"/>
    <s:alias val="$_NAND_"/>
    <s:alias val="$_ANDNOT_"/>
    <path d="M0,0 L0,25 L15,25 A15 12.5 0 0 0 15,0 Z" class="cell_$abc$257$auto$blifparse.cc:397:parse_blif$259"/>
    <circle cx="34" cy="12.5" r="3" class="cell_$abc$257$auto$blifparse.cc:397:parse_blif$259"/>
    <g s:x="0" s:y="5" s:pid="A"/>
    <g s:x="0" s:y="20" s:pid="B"/>
    <g s:x="36" s:y="12.5" s:pid="Y"/>
  </g>
  <g s:type="and" transform="translate(243,35.5)" s:width="30" s:height="25" id="cell_$abc$257$auto$blifparse.cc:397:parse_blif$260">
    <s:alias val="$and"/>
    <s:alias val="$logic_and"/>
    <s:alias val="$_AND_"/>
    <path d="M0,0 L0,25 L15,25 A15 12.5 0 0 0 15,0 Z" class="cell_$abc$257$auto$blifparse.cc:397:parse_blif$260"/>
    <g s:x="0" s:y="5" s:pid="A"/>
    <g s:x="0" s:y="20" s:pid="B"/>
    <g s:x="30" s:y="12.5" s:pid="Y"/>
  </g>
  <g s:type="and" transform="translate(314,19.5)" s:width="30" s:height="25" id="cell_$abc$257$auto$blifparse.cc:397:parse_blif$261">
    <s:alias val="$and"/>
    <s:alias val="$logic_and"/>
    <s:alias val="$_AND_"/>
    <path d="M0,0 L0,25 L15,25 A15 12.5 0 0 0 15,0 Z" class="cell_$abc$257$auto$blifparse.cc:397:parse_blif$261"/>
    <g s:x="0" s:y="5" s:pid="A"/>
    <g s:x="0" s:y="20" s:pid="B"/>
    <g s:x="30" s:y="12.5" s:pid="Y"/>
  </g>
  <g s:type="and" transform="translate(243,95.5)" s:width="30" s:height="25" id="cell_$abc$257$auto$blifparse.cc:397:parse_blif$262">
    <s:alias val="$and"/>
    <s:alias val="$logic_and"/>
    <s:alias val="$_AND_"/>
    <path d="M0,0 L0,25 L15,25 A15 12.5 0 0 0 15,0 Z" class="cell_$abc$257$auto$blifparse.cc:397:parse_blif$262"/>
    <g s:x="0" s:y="5" s:pid="A"/>
    <g s:x="0" s:y="20" s:pid="B"/>
    <g s:x="30" s:y="12.5" s:pid="Y"/>
  </g>
  <g s:type="and" transform="translate(314,88)" s:width="30" s:height="25" id="cell_$abc$257$auto$blifparse.cc:397:parse_blif$263">
    <s:alias val="$and"/>
    <s:alias val="$logic_and"/>
    <s:alias val="$_AND_"/>
    <path d="M0,0 L0,25 L15,25 A15 12.5 0 0 0 15,0 Z" class="cell_$abc$257$auto$blifparse.cc:397:parse_blif$263"/>
    <g s:x="0" s:y="5" s:pid="A"/>
    <g s:x="0" s:y="20" s:pid="B"/>
    <g s:x="30" s:y="12.5" s:pid="Y"/>
  </g>
  <g s:type="reduce_nor" transform="translate(145,255)" s:width="33" s:height="25" id="cell_$abc$257$auto$blifparse.cc:397:parse_blif$264">
    <s:alias val="$nor"/>
    <s:alias val="$reduce_nor"/>
    <s:alias val="$_NOR_"/>
    <s:alias val="$_ORNOT_"/>
    <path d="M0,25 L0,25 L15,25 A15 12.5 0 0 0 15,0 L0,0" class="cell_$abc$257$auto$blifparse.cc:397:parse_blif$264"/>
    <path d="M0,0 A30 25 0 0 1 0,25" class="cell_$abc$257$auto$blifparse.cc:397:parse_blif$264"/>
    <circle cx="34" cy="12.5" r="3" class="cell_$abc$257$auto$blifparse.cc:397:parse_blif$264"/>
    <g s:x="3" s:y="5" s:pid="A"/>
    <g s:x="3" s:y="20" s:pid="B"/>
    <g s:x="36" s:y="12.5" s:pid="Y"/>
  </g>
  <g s:type="reduce_nor" transform="translate(241,145.5)" s:width="33" s:height="25" id="cell_$abc$257$auto$blifparse.cc:397:parse_blif$265">
    <s:alias val="$nor"/>
    <s:alias val="$reduce_nor"/>
    <s:alias val="$_NOR_"/>
    <s:alias val="$_ORNOT_"/>
    <path d="M0,25 L0,25 L15,25 A15 12.5 0 0 0 15,0 L0,0" class="cell_$abc$257$auto$blifparse.cc:397:parse_blif$265"/>
    <path d="M0,0 A30 25 0 0 1 0,25" class="cell_$abc$257$auto$blifparse.cc:397:parse_blif$265"/>
    <circle cx="34" cy="12.5" r="3" class="cell_$abc$257$auto$blifparse.cc:397:parse_blif$265"/>
    <g s:x="3" s:y="5" s:pid="A"/>
    <g s:x="3" s:y="20" s:pid="B"/>
    <g s:x="36" s:y="12.5" s:pid="Y"/>
  </g>
  <g s:type="reduce_nor" transform="translate(241,285)" s:width="33" s:height="25" id="cell_$abc$257$auto$blifparse.cc:397:parse_blif$266">
    <s:alias val="$nor"/>
    <s:alias val="$reduce_nor"/>
    <s:alias val="$_NOR_"/>
    <s:alias val="$_ORNOT_"/>
    <path d="M0,25 L0,25 L15,25 A15 12.5 0 0 0 15,0 L0,0" class="cell_$abc$257$auto$blifparse.cc:397:parse_blif$266"/>
    <path d="M0,0 A30 25 0 0 1 0,25" class="cell_$abc$257$auto$blifparse.cc:397:parse_blif$266"/>
    <circle cx="34" cy="12.5" r="3" class="cell_$abc$257$auto$blifparse.cc:397:parse_blif$266"/>
    <g s:x="3" s:y="5" s:pid="A"/>
    <g s:x="3" s:y="20" s:pid="B"/>
    <g s:x="36" s:y="12.5" s:pid="Y"/>
  </g>
  <g s:type="and" transform="translate(314,153)" s:width="30" s:height="25" id="cell_$abc$257$auto$blifparse.cc:397:parse_blif$267">
    <s:alias val="$and"/>
    <s:alias val="$logic_and"/>
    <s:alias val="$_AND_"/>
    <path d="M0,0 L0,25 L15,25 A15 12.5 0 0 0 15,0 Z" class="cell_$abc$257$auto$blifparse.cc:397:parse_blif$267"/>
    <g s:x="0" s:y="5" s:pid="A"/>
    <g s:x="0" s:y="20" s:pid="B"/>
    <g s:x="30" s:y="12.5" s:pid="Y"/>
  </g>
  <g s:type="reduce_nor" transform="translate(241,345)" s:width="33" s:height="25" id="cell_$abc$257$auto$blifparse.cc:397:parse_blif$268">
    <s:alias val="$nor"/>
    <s:alias val="$reduce_nor"/>
    <s:alias val="$_NOR_"/>
    <s:alias val="$_ORNOT_"/>
    <path d="M0,25 L0,25 L15,25 A15 12.5 0 0 0 15,0 L0,0" class="cell_$abc$257$auto$blifparse.cc:397:parse_blif$268"/>
    <path d="M0,0 A30 25 0 0 1 0,25" class="cell_$abc$257$auto$blifparse.cc:397:parse_blif$268"/>
    <circle cx="34" cy="12.5" r="3" class="cell_$abc$257$auto$blifparse.cc:397:parse_blif$268"/>
    <g s:x="3" s:y="5" s:pid="A"/>
    <g s:x="3" s:y="20" s:pid="B"/>
    <g s:x="36" s:y="12.5" s:pid="Y"/>
  </g>
  <g s:type="and" transform="translate(314,218)" s:width="30" s:height="25" id="cell_$abc$257$auto$blifparse.cc:397:parse_blif$269">
    <s:alias val="$and"/>
    <s:alias val="$logic_and"/>
    <s:alias val="$_AND_"/>
    <path d="M0,0 L0,25 L15,25 A15 12.5 0 0 0 15,0 Z" class="cell_$abc$257$auto$blifparse.cc:397:parse_blif$269"/>
    <g s:x="0" s:y="5" s:pid="A"/>
    <g s:x="0" s:y="20" s:pid="B"/>
    <g s:x="30" s:y="12.5" s:pid="Y"/>
  </g>
  <g s:type="and" transform="translate(243,391)" s:width="30" s:height="25" id="cell_$abc$257$auto$blifparse.cc:397:parse_blif$270">
    <s:alias val="$and"/>
    <s:alias val="$logic_and"/>
    <s:alias val="$_AND_"/>
    <path d="M0,0 L0,25 L15,25 A15 12.5 0 0 0 15,0 Z" class="cell_$abc$257$auto$blifparse.cc:397:parse_blif$270"/>
    <g s:x="0" s:y="5" s:pid="A"/>
    <g s:x="0" s:y="20" s:pid="B"/>
    <g s:x="30" s:y="12.5" s:pid="Y"/>
  </g>
  <g s:type="reduce_nor" transform="translate(312,375)" s:width="33" s:height="25" id="cell_$abc$257$auto$blifparse.cc:397:parse_blif$271">
    <s:alias val="$nor"/>
    <s:alias val="$reduce_nor"/>
    <s:alias val="$_NOR_"/>
    <s:alias val="$_ORNOT_"/>
    <path d="M0,25 L0,25 L15,25 A15 12.5 0 0 0 15,0 L0,0" class="cell_$abc$257$auto$blifparse.cc:397:parse_blif$271"/>
    <path d="M0,0 A30 25 0 0 1 0,25" class="cell_$abc$257$auto$blifparse.cc:397:parse_blif$271"/>
    <circle cx="34" cy="12.5" r="3" class="cell_$abc$257$auto$blifparse.cc:397:parse_blif$271"/>
    <g s:x="3" s:y="5" s:pid="A"/>
    <g s:x="3" s:y="20" s:pid="B"/>
    <g s:x="36" s:y="12.5" s:pid="Y"/>
  </g>
  <g s:type="inputExt" transform="translate(12,255)" s:width="30" s:height="20" id="cell_opcode">
    <text x="15" y="-4" class="nodelabel cell_opcode" s:attribute="ref">opcode</text>
    <s:alias val="$_inputExt_"/>
    <path d="M0,0 L0,20 L15,20 L30,10 L15,0 Z" class="cell_opcode"/>
    <g s:x="28" s:y="10" s:pid="Y"/>
  </g>
  <g s:type="inputExt" transform="translate(145,30.5)" s:width="30" s:height="20" id="cell_Z">
    <text x="15" y="-4" class="nodelabel cell_Z" s:attribute="ref">Z</text>
    <s:alias val="$_inputExt_"/>
    <path d="M0,0 L0,20 L15,20 L30,10 L15,0 Z" class="cell_Z"/>
    <g s:x="28" s:y="10" s:pid="Y"/>
  </g>
  <g s:type="outputExt" transform="translate(383,377.5)" s:width="30" s:height="20" id="cell_reg_wen">
    <text x="15" y="-4" class="nodelabel cell_reg_wen" s:attribute="ref">reg_wen</text>
    <s:alias val="$_outputExt_"/>
    <path d="M30,0 L30,20 L15,20 L0,10 L15,0 Z" class="cell_reg_wen"/>
    <g s:x="0" s:y="10" s:pid="A"/>
  </g>
  <g s:type="outputExt" transform="translate(383,220.5)" s:width="30" s:height="20" id="cell_mem_wen">
    <text x="15" y="-4" class="nodelabel cell_mem_wen" s:attribute="ref">mem_wen</text>
    <s:alias val="$_outputExt_"/>
    <path d="M30,0 L30,20 L15,20 L0,10 L15,0 Z" class="cell_mem_wen"/>
    <g s:x="0" s:y="10" s:pid="A"/>
  </g>
  <g s:type="outputExt" transform="translate(383,22)" s:width="30" s:height="20" id="cell_branch_taken">
    <text x="15" y="-4" class="nodelabel cell_branch_taken" s:attribute="ref">branch_taken</text>
    <s:alias val="$_outputExt_"/>
    <path d="M30,0 L30,20 L15,20 L0,10 L15,0 Z" class="cell_branch_taken"/>
    <g s:x="0" s:y="10" s:pid="A"/>
  </g>
  <g s:type="outputExt" transform="translate(383,90.5)" s:width="30" s:height="20" id="cell_halt">
    <text x="15" y="-4" class="nodelabel cell_halt" s:attribute="ref">halt</text>
    <s:alias val="$_outputExt_"/>
    <path d="M30,0 L30,20 L15,20 L0,10 L15,0 Z" class="cell_halt"/>
    <g s:x="0" s:y="10" s:pid="A"/>
  </g>
  <g s:type="outputExt" transform="translate(383,155.5)" s:width="30" s:height="20" id="cell_z_wen">
    <text x="15" y="-4" class="nodelabel cell_z_wen" s:attribute="ref">z_wen</text>
    <s:alias val="$_outputExt_"/>
    <path d="M30,0 L30,20 L15,20 L0,10 L15,0 Z" class="cell_z_wen"/>
    <g s:x="0" s:y="10" s:pid="A"/>
  </g>
  <g s:type="split" transform="translate(83,244.5)" s:width="5" s:height="40" id="cell_$split$,2,3,4,5,">
    <rect width="5" height="80" class="splitjoinBody" s:generic="body"/>
    <s:alias val="$_split_"/>
    <g s:x="0" s:y="20" s:pid="in"/>
    <g transform="translate(4,10)" s:x="4" s:y="10" s:pid="out0">
      <text x="5" y="-4">0</text>
    </g>
    <g transform="translate(4,30)" s:x="4" s:y="10" s:pid="out0">
      <text x="5" y="-4">1</text>
    </g>
    <g transform="translate(4,50)" s:x="4" s:y="10" s:pid="out0">
      <text x="5" y="-4">2</text>
    </g>
    <g transform="translate(4,70)" s:x="4" s:y="10" s:pid="out0">
      <text x="5" y="-4">3</text>
    </g>
  </g>
  <line x1="88" x2="105" y1="255" y2="255" class="net_2"/>
  <line x1="105" x2="105" y1="255" y2="143" class="net_2"/>
  <circle cx="105" cy="255" r="2" style="fill:#000" class="net_2"/>
  <line x1="105" x2="145" y1="143" y2="143" class="net_2"/>
  <line x1="88" x2="105" y1="255" y2="255" class="net_2"/>
  <line x1="105" x2="105" y1="255" y2="184" class="net_2"/>
  <line x1="105" x2="211" y1="184" y2="184" class="net_2"/>
  <line x1="211" x2="211" y1="184" y2="115.5" class="net_2"/>
  <circle cx="105" cy="184" r="2" style="fill:#000" class="net_2"/>
  <line x1="211" x2="243" y1="115.5" y2="115.5" class="net_2"/>
  <line x1="88" x2="105" y1="255" y2="255" class="net_2"/>
  <line x1="105" x2="105" y1="255" y2="260" class="net_2"/>
  <circle cx="105" cy="260" r="2" style="fill:#000" class="net_2"/>
  <line x1="105" x2="148" y1="260" y2="260" class="net_2"/>
  <line x1="88" x2="105" y1="255" y2="255" class="net_2"/>
  <line x1="105" x2="105" y1="255" y2="365" class="net_2"/>
  <line x1="105" x2="244" y1="365" y2="365" class="net_2"/>
  <line x1="88" x2="135" y1="275" y2="275" class="net_3"/>
  <line x1="135" x2="135" y1="275" y2="158" class="net_3"/>
  <circle cx="135" cy="275" r="2" style="fill:#000" class="net_3"/>
  <line x1="135" x2="145" y1="158" y2="158" class="net_3"/>
  <line x1="88" x2="135" y1="275" y2="275" class="net_3"/>
  <line x1="135" x2="135" y1="275" y2="173" class="net_3"/>
  <line x1="135" x2="201" y1="173" y2="173" class="net_3"/>
  <line x1="201" x2="201" y1="173" y2="100.5" class="net_3"/>
  <circle cx="135" cy="173" r="2" style="fill:#000" class="net_3"/>
  <line x1="201" x2="243" y1="100.5" y2="100.5" class="net_3"/>
  <line x1="88" x2="148" y1="275" y2="275" class="net_3"/>
  <line x1="88" x2="135" y1="275" y2="275" class="net_3"/>
  <line x1="135" x2="135" y1="275" y2="350" class="net_3"/>
  <line x1="135" x2="244" y1="350" y2="350" class="net_3"/>
  <line x1="88" x2="115" y1="295" y2="295" class="net_4"/>
  <line x1="115" x2="115" y1="295" y2="200" class="net_4"/>
  <circle cx="115" cy="295" r="2" style="fill:#000" class="net_4"/>
  <line x1="115" x2="145" y1="200" y2="200" class="net_4"/>
  <line x1="88" x2="115" y1="295" y2="295" class="net_4"/>
  <line x1="115" x2="115" y1="295" y2="290" class="net_4"/>
  <circle cx="115" cy="290" r="2" style="fill:#000" class="net_4"/>
  <line x1="115" x2="244" y1="290" y2="290" class="net_4"/>
  <line x1="88" x2="115" y1="295" y2="295" class="net_4"/>
  <line x1="115" x2="115" y1="295" y2="396" class="net_4"/>
  <line x1="115" x2="243" y1="396" y2="396" class="net_4"/>
  <line x1="88" x2="125" y1="315" y2="315" class="net_5"/>
  <line x1="125" x2="125" y1="315" y2="215" class="net_5"/>
  <circle cx="125" cy="315" r="2" style="fill:#000" class="net_5"/>
  <line x1="125" x2="145" y1="215" y2="215" class="net_5"/>
  <line x1="88" x2="125" y1="315" y2="315" class="net_5"/>
  <line x1="125" x2="125" y1="315" y2="305" class="net_5"/>
  <circle cx="125" cy="305" r="2" style="fill:#000" class="net_5"/>
  <line x1="125" x2="244" y1="305" y2="305" class="net_5"/>
  <line x1="88" x2="125" y1="315" y2="315" class="net_5"/>
  <line x1="125" x2="125" y1="315" y2="380" class="net_5"/>
  <line x1="125" x2="315" y1="380" y2="380" class="net_5"/>
  <line x1="173" x2="243" y1="40.5" y2="40.5" class="net_6"/>
  <line x1="181" x2="221" y1="207.5" y2="207.5" class="net_13"/>
  <line x1="221" x2="221" y1="207.5" y2="55.5" class="net_13"/>
  <circle cx="221" cy="207.5" r="2" style="fill:#000" class="net_13"/>
  <line x1="221" x2="243" y1="55.5" y2="55.5" class="net_13"/>
  <line x1="181" x2="221" y1="207.5" y2="207.5" class="net_13"/>
  <line x1="221" x2="221" y1="207.5" y2="130.5" class="net_13"/>
  <line x1="221" x2="287" y1="130.5" y2="130.5" class="net_13"/>
  <line x1="287" x2="287" y1="130.5" y2="93" class="net_13"/>
  <circle cx="221" cy="130.5" r="2" style="fill:#000" class="net_13"/>
  <line x1="287" x2="314" y1="93" y2="93" class="net_13"/>
  <line x1="181" x2="221" y1="207.5" y2="207.5" class="net_13"/>
  <line x1="221" x2="221" y1="207.5" y2="223" class="net_13"/>
  <line x1="221" x2="314" y1="223" y2="223" class="net_13"/>
  <line x1="181" x2="191" y1="150.5" y2="150.5" class="net_12"/>
  <line x1="191" x2="191" y1="150.5" y2="24.5" class="net_12"/>
  <circle cx="191" cy="150.5" r="2" style="fill:#000" class="net_12"/>
  <line x1="191" x2="314" y1="24.5" y2="24.5" class="net_12"/>
  <line x1="181" x2="244" y1="150.5" y2="150.5" class="net_12"/>
  <line x1="273" x2="287" y1="48" y2="48" class="net_14"/>
  <line x1="287" x2="287" y1="48" y2="39.5" class="net_14"/>
  <line x1="287" x2="314" y1="39.5" y2="39.5" class="net_14"/>
  <line x1="273" x2="314" y1="108" y2="108" class="net_15"/>
  <line x1="181" x2="231" y1="267.5" y2="267.5" class="net_16"/>
  <line x1="231" x2="231" y1="267.5" y2="165.5" class="net_16"/>
  <circle cx="231" cy="267.5" r="2" style="fill:#000" class="net_16"/>
  <line x1="231" x2="244" y1="165.5" y2="165.5" class="net_16"/>
  <line x1="181" x2="231" y1="267.5" y2="267.5" class="net_16"/>
  <line x1="231" x2="231" y1="267.5" y2="411" class="net_16"/>
  <line x1="231" x2="243" y1="411" y2="411" class="net_16"/>
  <line x1="277" x2="314" y1="158" y2="158" class="net_17"/>
  <line x1="277" x2="287" y1="297.5" y2="297.5" class="net_18"/>
  <line x1="287" x2="287" y1="297.5" y2="173" class="net_18"/>
  <line x1="287" x2="314" y1="173" y2="173" class="net_18"/>
  <line x1="277" x2="297" y1="357.5" y2="357.5" class="net_19"/>
  <line x1="297" x2="297" y1="357.5" y2="238" class="net_19"/>
  <line x1="297" x2="314" y1="238" y2="238" class="net_19"/>
  <line x1="273" x2="287" y1="403.5" y2="403.5" class="net_20"/>
  <line x1="287" x2="287" y1="403.5" y2="395" class="net_20"/>
  <line x1="287" x2="315" y1="395" y2="395" class="net_20"/>
  <line x1="348" x2="383" y1="387.5" y2="387.5" class="net_7"/>
  <line x1="344" x2="383" y1="230.5" y2="230.5" class="net_8"/>
  <line x1="344" x2="383" y1="32" y2="32" class="net_9"/>
  <line x1="344" x2="383" y1="100.5" y2="100.5" class="net_10"/>
  <line x1="344" x2="383" y1="165.5" y2="165.5" class="net_11"/>
  <line x1="40" x2="83" y1="265" y2="265" class="net_2,3,4,5"/>
</svg>
