<svg xmlns="http://www.w3.org/2000/svg" xmlns:xlink="http://www.w3.org/1999/xlink" xmlns:s="https://github.com/nturley/netlistsvg" width="993" height="719">
  <style>svg {
    stroke:#000;
    fill:none;
  }
  text {
    fill:#000;
    stroke:none;
    font-size:10px;
    font-weight: bold;
    font-family: "Courier New", monospace;
  }
  .nodelabel {
    text-anchor: middle;
  }
  .inputPortLabel {
    text-anchor: end;
  }
  .splitjoinBody {
    fill:#000;
  }</style>
  <g s:type="add" transform="translate(377.6666666666667,60)" s:width="25" s:height="25" id="cell_$add$toplevel.v:285$841">
    <s:alias val="$add"/>
    <circle r="12.5" cx="12.5" cy="12.5" class="cell_$add$toplevel.v:285$841"/>
    <line x1="7.5" x2="17.5" y1="12.5" y2="12.5" class="cell_$add$toplevel.v:285$841"/>
    <line x1="12.5" x2="12.5" y1="7.5" y2="17.5" class="cell_$add$toplevel.v:285$841"/>
    <g s:x="3" s:y="5" s:pid="A"/>
    <g s:x="3" s:y="20" s:pid="B"/>
    <g s:x="25" s:y="12.5" s:pid="Y"/>
  </g>
  <g s:type="add" transform="translate(515,83.5)" s:width="25" s:height="25" id="cell_$add$toplevel.v:285$842">
    <s:alias val="$add"/>
    <circle r="12.5" cx="12.5" cy="12.5" class="cell_$add$toplevel.v:285$842"/>
    <line x1="7.5" x2="17.5" y1="12.5" y2="12.5" class="cell_$add$toplevel.v:285$842"/>
    <line x1="12.5" x2="12.5" y1="7.5" y2="17.5" class="cell_$add$toplevel.v:285$842"/>
    <g s:x="3" s:y="5" s:pid="A"/>
    <g s:x="3" s:y="20" s:pid="B"/>
    <g s:x="25" s:y="12.5" s:pid="Y"/>
  </g>
  <g s:type="mux" transform="translate(658.6666666666666,62.5)" s:width="20" s:height="40" id="cell_$ternary$toplevel.v:288$843">
    <s:alias val="$pmux"/>
    <s:alias val="$mux"/>
    <s:alias val="$_MUX_"/>
    <path d="M0,0 L20,10 L20,30 L0,40 Z" class="cell_$ternary$toplevel.v:288$843"/>
    <g s:x="0" s:y="10" s:pid="A"/>
    <g s:x="0" s:y="30" s:pid="B"/>
    <g s:x="10" s:y="35" s:pid="S"/>
    <g s:x="20" s:y="20" s:pid="Y"/>
  </g>
  <g s:type="generic" transform="translate(659,500)" s:width="30" s:height="40" id="cell_alu0">
    <text x="15" y="-4" class="nodelabel cell_alu0" s:attribute="ref">alu</text>
    <rect width="30" height="100" s:generic="body" class="cell_alu0"/>
    <g transform="translate(0,10)" s:x="0" s:y="10" s:pid="in0" id="port_alu0~a">
      <text x="-3" y="-4" class="inputPortLabel cell_alu0">a</text>
    </g>
    <g transform="translate(0,30)" s:x="0" s:y="10" s:pid="in0" id="port_alu0~b">
      <text x="-3" y="-4" class="inputPortLabel cell_alu0">b</text>
    </g>
    <g transform="translate(0,50)" s:x="0" s:y="10" s:pid="in0" id="port_alu0~imm">
      <text x="-3" y="-4" class="inputPortLabel cell_alu0">imm</text>
    </g>
    <g transform="translate(0,70)" s:x="0" s:y="10" s:pid="in0" id="port_alu0~mem_data">
      <text x="-3" y="-4" class="inputPortLabel cell_alu0">mem_data</text>
    </g>
    <g transform="translate(0,90)" s:x="0" s:y="10" s:pid="in0" id="port_alu0~opcode">
      <text x="-3" y="-4" class="inputPortLabel cell_alu0">opcode</text>
    </g>
    <g transform="translate(30,10)" s:x="30" s:y="10" s:pid="out0" id="port_alu0~result">
      <text x="5" y="-4" style="fill:#000; stroke:none" class="cell_alu0">result</text>
    </g>
  </g>
  <g s:type="generic" transform="translate(153,417.5)" s:width="30" s:height="40" id="cell_cu">
    <text x="15" y="-4" class="nodelabel cell_cu" s:attribute="ref">control_unit</text>
    <rect width="30" height="100" s:generic="body" class="cell_cu"/>
    <g transform="translate(0,10)" s:x="0" s:y="10" s:pid="in0" id="port_cu~Z">
      <text x="-3" y="-4" class="inputPortLabel cell_cu">Z</text>
    </g>
    <g transform="translate(0,30)" s:x="0" s:y="10" s:pid="in0" id="port_cu~opcode">
      <text x="-3" y="-4" class="inputPortLabel cell_cu">opcode</text>
    </g>
    <g transform="translate(30,10)" s:x="30" s:y="10" s:pid="out0" id="port_cu~branch_taken">
      <text x="5" y="-4" style="fill:#000; stroke:none" class="cell_cu">branch_taken</text>
    </g>
    <g transform="translate(30,30)" s:x="30" s:y="10" s:pid="out0" id="port_cu~halt">
      <text x="5" y="-4" style="fill:#000; stroke:none" class="cell_cu">halt</text>
    </g>
    <g transform="translate(30,50)" s:x="30" s:y="10" s:pid="out0" id="port_cu~mem_wen">
      <text x="5" y="-4" style="fill:#000; stroke:none" class="cell_cu">mem_wen</text>
    </g>
    <g transform="translate(30,70)" s:x="30" s:y="10" s:pid="out0" id="port_cu~reg_wen">
      <text x="5" y="-4" style="fill:#000; stroke:none" class="cell_cu">reg_wen</text>
    </g>
    <g transform="translate(30,90)" s:x="30" s:y="10" s:pid="out0" id="port_cu~z_wen">
      <text x="5" y="-4" style="fill:#000; stroke:none" class="cell_cu">z_wen</text>
    </g>
  </g>
  <g s:type="generic" transform="translate(513,397.5)" s:width="30" s:height="40" id="cell_dmem">
    <text x="15" y="-4" class="nodelabel cell_dmem" s:attribute="ref">data_mem</text>
    <rect width="30" height="80" s:generic="body" class="cell_dmem"/>
    <g transform="translate(0,10)" s:x="0" s:y="10" s:pid="in0" id="port_dmem~addr">
      <text x="-3" y="-4" class="inputPortLabel cell_dmem">addr</text>
    </g>
    <g transform="translate(0,30)" s:x="0" s:y="10" s:pid="in0" id="port_dmem~clk">
      <text x="-3" y="-4" class="inputPortLabel cell_dmem">clk</text>
    </g>
    <g transform="translate(0,50)" s:x="0" s:y="10" s:pid="in0" id="port_dmem~wdata">
      <text x="-3" y="-4" class="inputPortLabel cell_dmem">wdata</text>
    </g>
    <g transform="translate(0,70)" s:x="0" s:y="10" s:pid="in0" id="port_dmem~wen">
      <text x="-3" y="-4" class="inputPortLabel cell_dmem">wen</text>
    </g>
    <g transform="translate(30,10)" s:x="30" s:y="10" s:pid="out0" id="port_dmem~rdata">
      <text x="5" y="-4" style="fill:#000; stroke:none" class="cell_dmem">rdata</text>
    </g>
  </g>
  <g s:type="generic" transform="translate(800.1666666666666,332)" s:width="30" s:height="40" id="cell_flag0">
    <text x="15" y="-4" class="nodelabel cell_flag0" s:attribute="ref">flag_reg</text>
    <rect width="30" height="80" s:generic="body" class="cell_flag0"/>
    <g transform="translate(0,10)" s:x="0" s:y="10" s:pid="in0" id="port_flag0~clk">
      <text x="-3" y="-4" class="inputPortLabel cell_flag0">clk</text>
    </g>
    <g transform="translate(0,30)" s:x="0" s:y="10" s:pid="in0" id="port_flag0~reset">
      <text x="-3" y="-4" class="inputPortLabel cell_flag0">reset</text>
    </g>
    <g transform="translate(0,50)" s:x="0" s:y="10" s:pid="in0" id="port_flag0~value">
      <text x="-3" y="-4" class="inputPortLabel cell_flag0">value</text>
    </g>
    <g transform="translate(0,70)" s:x="0" s:y="10" s:pid="in0" id="port_flag0~z_wen">
      <text x="-3" y="-4" class="inputPortLabel cell_flag0">z_wen</text>
    </g>
    <g transform="translate(30,10)" s:x="30" s:y="10" s:pid="out0" id="port_flag0~Z">
      <text x="5" y="-4" style="fill:#000; stroke:none" class="cell_flag0">Z</text>
    </g>
  </g>
  <g s:type="generic" transform="translate(909,121)" s:width="30" s:height="40" id="cell_imem">
    <text x="15" y="-4" class="nodelabel cell_imem" s:attribute="ref">instr_mem</text>
    <rect width="30" height="80" s:generic="body" class="cell_imem"/>
    <g transform="translate(0,10)" s:x="0" s:y="10" s:pid="in0" id="port_imem~addr">
      <text x="-3" y="-4" class="inputPortLabel cell_imem">addr</text>
    </g>
    <g transform="translate(0,30)" s:x="0" s:y="10" s:pid="in0" id="port_imem~clk">
      <text x="-3" y="-4" class="inputPortLabel cell_imem">clk</text>
    </g>
    <g transform="translate(0,50)" s:x="0" s:y="10" s:pid="in0" id="port_imem~din">
      <text x="-3" y="-4" class="inputPortLabel cell_imem">din</text>
    </g>
    <g transform="translate(0,70)" s:x="0" s:y="10" s:pid="in0" id="port_imem~we">
      <text x="-3" y="-4" class="inputPortLabel cell_imem">we</text>
    </g>
    <g transform="translate(30,10)" s:x="30" s:y="10" s:pid="out0" id="port_imem~instr">
      <text x="5" y="-4" style="fill:#000; stroke:none" class="cell_imem">instr</text>
    </g>
  </g>
  <g s:type="generic" transform="translate(805,32)" s:width="30" s:height="40" id="cell_pc0">
    <text x="15" y="-4" class="nodelabel cell_pc0" s:attribute="ref">pc_reg</text>
    <rect width="30" height="80" s:generic="body" class="cell_pc0"/>
    <g transform="translate(0,10)" s:x="0" s:y="10" s:pid="in0" id="port_pc0~clk">
      <text x="-3" y="-4" class="inputPortLabel cell_pc0">clk</text>
    </g>
    <g transform="translate(0,30)" s:x="0" s:y="10" s:pid="in0" id="port_pc0~halt">
      <text x="-3" y="-4" class="inputPortLabel cell_pc0">halt</text>
    </g>
    <g transform="translate(0,50)" s:x="0" s:y="10" s:pid="in0" id="port_pc0~next_pc">
      <text x="-3" y="-4" class="inputPortLabel cell_pc0">next_pc</text>
    </g>
    <g transform="translate(0,70)" s:x="0" s:y="10" s:pid="in0" id="port_pc0~reset">
      <text x="-3" y="-4" class="inputPortLabel cell_pc0">reset</text>
    </g>
    <g transform="translate(30,10)" s:x="30" s:y="10" s:pid="out0" id="port_pc0~PC">
      <text x="5" y="-4" style="fill:#000; stroke:none" class="cell_pc0">PC</text>
    </g>
  </g>
  <g s:type="generic" transform="translate(374,500)" s:width="30" s:height="40" id="cell_rf">
    <text x="15" y="-4" class="nodelabel cell_rf" s:attribute="ref">reg_file</text>
    <rect width="30" height="140" s:generic="body" class="cell_rf"/>
    <g transform="translate(0,10)" s:x="0" s:y="10" s:pid="in0" id="port_rf~clk">
      <text x="-3" y="-4" class="inputPortLabel cell_rf">clk</text>
    </g>
    <g transform="translate(0,30)" s:x="0" s:y="10" s:pid="in0" id="port_rf~raddr1">
      <text x="-3" y="-4" class="inputPortLabel cell_rf">raddr1</text>
    </g>
    <g transform="translate(0,50)" s:x="0" s:y="10" s:pid="in0" id="port_rf~raddr2">
      <text x="-3" y="-4" class="inputPortLabel cell_rf">raddr2</text>
    </g>
    <g transform="translate(0,70)" s:x="0" s:y="10" s:pid="in0" id="port_rf~reset">
      <text x="-3" y="-4" class="inputPortLabel cell_rf">reset</text>
    </g>
    <g transform="translate(0,90)" s:x="0" s:y="10" s:pid="in0" id="port_rf~waddr">
      <text x="-3" y="-4" class="inputPortLabel cell_rf">waddr</text>
    </g>
    <g transform="translate(0,110)" s:x="0" s:y="10" s:pid="in0" id="port_rf~wdata">
      <text x="-3" y="-4" class="inputPortLabel cell_rf">wdata</text>
    </g>
    <g transform="translate(0,130)" s:x="0" s:y="10" s:pid="in0" id="port_rf~wen">
      <text x="-3" y="-4" class="inputPortLabel cell_rf">wen</text>
    </g>
    <g transform="translate(30,10)" s:x="30" s:y="10" s:pid="out0" id="port_rf~rdata1">
      <text x="5" y="-4" style="fill:#000; stroke:none" class="cell_rf">rdata1</text>
    </g>
    <g transform="translate(30,30)" s:x="30" s:y="10" s:pid="out0" id="port_rf~rdata2">
      <text x="5" y="-4" style="fill:#000; stroke:none" class="cell_rf">rdata2</text>
    </g>
  </g>
  <g s:type="inputExt" transform="translate(153,287.5)" s:width="30" s:height="20" id="cell_clk">
    <text x="15" y="-4" class="nodelabel cell_clk" s:attribute="ref">clk</text>
    <s:alias val="$_inputExt_"/>
    <path d="M0,0 L0,20 L15,20 L30,10 L15,0 Z" class="cell_clk"/>
    <g s:x="28" s:y="10" s:pid="Y"/>
  </g>
  <g s:type="inputExt" transform="translate(153,352.5)" s:width="30" s:height="20" id="cell_reset">
    <text x="15" y="-4" class="nodelabel cell_reset" s:attribute="ref">reset</text>
    <s:alias val="$_inputExt_"/>
    <path d="M0,0 L0,20 L15,20 L30,10 L15,0 Z" class="cell_reset"/>
    <g s:x="28" s:y="10" s:pid="Y"/>
  </g>
  <g s:type="outputExt" transform="translate(909,32.5)" s:width="30" s:height="20" id="cell_out_PC">
    <text x="15" y="-4" class="nodelabel cell_out_PC" s:attribute="ref">out_PC</text>
    <s:alias val="$_outputExt_"/>
    <path d="M30,0 L30,20 L15,20 L0,10 L15,0 Z" class="cell_out_PC"/>
    <g s:x="0" s:y="10" s:pid="A"/>
  </g>
  <g s:type="outputExt" transform="translate(909,332.5)" s:width="30" s:height="20" id="cell_out_Z">
    <text x="15" y="-4" class="nodelabel cell_out_Z" s:attribute="ref">out_Z</text>
    <s:alias val="$_outputExt_"/>
    <path d="M30,0 L30,20 L15,20 L0,10 L15,0 Z" class="cell_out_Z"/>
    <g s:x="0" s:y="10" s:pid="A"/>
  </g>
  <g s:type="outputExt" transform="translate(909,676)" s:width="30" s:height="20" id="cell_out_halt">
    <text x="15" y="-4" class="nodelabel cell_out_halt" s:attribute="ref">out_halt</text>
    <s:alias val="$_outputExt_"/>
    <path d="M30,0 L30,20 L15,20 L0,10 L15,0 Z" class="cell_out_halt"/>
    <g s:x="0" s:y="10" s:pid="A"/>
  </g>
  <g s:type="constant" transform="translate(153,70)" s:width="30" s:height="20" id="cell_1">
    <text x="15" y="-4" class="nodelabel cell_1" s:attribute="ref">1</text>
    <s:alias val="$_constant_"/>
    <rect width="30" height="20" class="cell_1"/>
    <g s:x="30" s:y="10" s:pid="Y"/>
  </g>
  <g s:type="constant" transform="translate(805,172.5)" s:width="30" s:height="20" id="cell_0000000000000000">
    <text x="15" y="-4" class="nodelabel cell_0000000000000000" s:attribute="ref">0x0</text>
    <s:alias val="$_constant_"/>
    <rect width="30" height="20" class="cell_0000000000000000"/>
    <g s:x="30" s:y="10" s:pid="Y"/>
  </g>
  <g s:type="constant" transform="translate(805,237.5)" s:width="30" s:height="20" id="cell_0">
    <text x="15" y="-4" class="nodelabel cell_0" s:attribute="ref">0</text>
    <s:alias val="$_constant_"/>
    <rect width="30" height="20" class="cell_0"/>
    <g s:x="30" s:y="10" s:pid="Y"/>
  </g>
  <g s:type="split" transform="translate(32,93)" s:width="5" s:height="40" id="cell_$split$,22,23,24,25,26,27,28,29,86,87,88,89,71,72,73,74,">
    <rect width="5" height="80" class="splitjoinBody" s:generic="body"/>
    <s:alias val="$_split_"/>
    <g s:x="0" s:y="20" s:pid="in"/>
    <g transform="translate(4,10)" s:x="4" s:y="10" s:pid="out0">
      <text x="5" y="-4">0:7</text>
    </g>
    <g transform="translate(4,30)" s:x="4" s:y="10" s:pid="out0">
      <text x="5" y="-4">12:15</text>
    </g>
    <g transform="translate(4,50)" s:x="4" s:y="10" s:pid="out0">
      <text x="5" y="-4">8:11</text>
    </g>
    <g transform="translate(4,70)" s:x="4" s:y="10" s:pid="out0">
      <text x="5" y="-4">4:7</text>
    </g>
  </g>
  <line x1="836" x2="859" y1="42.5" y2="42.5" class="net_4,5,6,7,8,9,10,11"/>
  <line x1="859" x2="859" y1="42.5" y2="12" class="net_4,5,6,7,8,9,10,11"/>
  <line x1="859" x2="267" y1="12" y2="12" class="net_4,5,6,7,8,9,10,11"/>
  <line x1="267" x2="267" y1="12" y2="65" class="net_4,5,6,7,8,9,10,11"/>
  <circle cx="859" cy="42.5" r="2" style="fill:#000" class="net_4,5,6,7,8,9,10,11"/>
  <line x1="267" x2="380.6666666666667" y1="65" y2="65" class="net_4,5,6,7,8,9,10,11"/>
  <line x1="836" x2="859" y1="42.5" y2="42.5" class="net_4,5,6,7,8,9,10,11"/>
  <line x1="859" x2="859" y1="42.5" y2="131.5" class="net_4,5,6,7,8,9,10,11"/>
  <line x1="859" x2="909" y1="131.5" y2="131.5" class="net_4,5,6,7,8,9,10,11"/>
  <line x1="836" x2="909" y1="42.5" y2="42.5" class="net_4,5,6,7,8,9,10,11"/>
  <line x1="183" x2="380.6666666666667" y1="80" y2="80" class="net_90"/>
  <line x1="402.6666666666667" x2="452" y1="72.5" y2="72.5" class="net_14,15,16,17,18,19,20,21"/>
  <line x1="452" x2="452" y1="72.5" y2="88.5" class="net_14,15,16,17,18,19,20,21"/>
  <circle cx="452" cy="72.5" r="2" style="fill:#000" class="net_14,15,16,17,18,19,20,21"/>
  <line x1="452" x2="518" y1="88.5" y2="88.5" class="net_14,15,16,17,18,19,20,21"/>
  <line x1="402.6666666666667" x2="658.6666666666666" y1="72.5" y2="72.5" class="net_14,15,16,17,18,19,20,21"/>
  <line x1="37" x2="518" y1="103.5" y2="103.5" class="net_22,23,24,25,26,27,28,29"/>
  <line x1="37" x2="86" y1="103.5" y2="103.5" class="net_22,23,24,25,26,27,28,29"/>
  <line x1="86" x2="86" y1="103.5" y2="653" class="net_22,23,24,25,26,27,28,29"/>
  <line x1="86" x2="585" y1="653" y2="653" class="net_22,23,24,25,26,27,28,29"/>
  <line x1="585" x2="585" y1="653" y2="550.5" class="net_22,23,24,25,26,27,28,29"/>
  <circle cx="86" cy="103.5" r="2" style="fill:#000" class="net_22,23,24,25,26,27,28,29"/>
  <line x1="585" x2="659" y1="550.5" y2="550.5" class="net_22,23,24,25,26,27,28,29"/>
  <line x1="540" x2="585" y1="96" y2="96" class="net_30,31,32,33,34,35,36,37"/>
  <line x1="585" x2="585" y1="96" y2="92.5" class="net_30,31,32,33,34,35,36,37"/>
  <line x1="585" x2="658.6666666666666" y1="92.5" y2="92.5" class="net_30,31,32,33,34,35,36,37"/>
  <line x1="184" x2="267" y1="428" y2="428" class="net_38"/>
  <line x1="267" x2="267" y1="428" y2="118.5" class="net_38"/>
  <line x1="267" x2="668.6666666666666" y1="118.5" y2="118.5" class="net_38"/>
  <line x1="668.6666666666666" x2="668.6666666666666" y1="118.5" y2="97.5" class="net_38"/>
  <line x1="405" x2="659" y1="510.5" y2="510.5" class="net_47,48,49,50,51,52,53,54"/>
  <line x1="405" x2="659" y1="530.5" y2="530.5" class="net_55,56,57,58,59,60,61,62"/>
  <line x1="405" x2="452" y1="530.5" y2="530.5" class="net_55,56,57,58,59,60,61,62"/>
  <line x1="452" x2="452" y1="530.5" y2="408" class="net_55,56,57,58,59,60,61,62"/>
  <circle cx="452" cy="530.5" r="2" style="fill:#000" class="net_55,56,57,58,59,60,61,62"/>
  <line x1="452" x2="513" y1="408" y2="408" class="net_55,56,57,58,59,60,61,62"/>
  <line x1="544" x2="595" y1="408" y2="408" class="net_63,64,65,66,67,68,69,70"/>
  <line x1="595" x2="595" y1="408" y2="570.5" class="net_63,64,65,66,67,68,69,70"/>
  <line x1="595" x2="659" y1="570.5" y2="570.5" class="net_63,64,65,66,67,68,69,70"/>
  <line x1="37" x2="76" y1="123.5" y2="123.5" class="net_71,72,73,74"/>
  <line x1="76" x2="76" y1="123.5" y2="664" class="net_71,72,73,74"/>
  <line x1="76" x2="595" y1="664" y2="664" class="net_71,72,73,74"/>
  <line x1="595" x2="595" y1="664" y2="590.5" class="net_71,72,73,74"/>
  <line x1="595" x2="659" y1="590.5" y2="590.5" class="net_71,72,73,74"/>
  <line x1="37" x2="76" y1="123.5" y2="123.5" class="net_71,72,73,74"/>
  <line x1="76" x2="76" y1="123.5" y2="448" class="net_71,72,73,74"/>
  <circle cx="76" cy="448" r="2" style="fill:#000" class="net_71,72,73,74"/>
  <line x1="76" x2="153" y1="448" y2="448" class="net_71,72,73,74"/>
  <line x1="831.1666666666666" x2="859" y1="342.5" y2="342.5" class="net_12"/>
  <line x1="859" x2="859" y1="342.5" y2="267.5" class="net_12"/>
  <line x1="859" x2="106" y1="267.5" y2="267.5" class="net_12"/>
  <line x1="106" x2="106" y1="267.5" y2="428" class="net_12"/>
  <circle cx="859" cy="342.5" r="2" style="fill:#000" class="net_12"/>
  <line x1="106" x2="153" y1="428" y2="428" class="net_12"/>
  <line x1="831.1666666666666" x2="909" y1="342.5" y2="342.5" class="net_12"/>
  <line x1="181" x2="327" y1="297.5" y2="297.5" class="net_2"/>
  <line x1="327" x2="327" y1="297.5" y2="383.5" class="net_2"/>
  <line x1="327" x2="462" y1="383.5" y2="383.5" class="net_2"/>
  <line x1="462" x2="462" y1="383.5" y2="428" class="net_2"/>
  <circle cx="327" cy="297.5" r="2" style="fill:#000" class="net_2"/>
  <circle cx="327" cy="383.5" r="2" style="fill:#000" class="net_2"/>
  <line x1="462" x2="513" y1="428" y2="428" class="net_2"/>
  <line x1="181" x2="737" y1="297.5" y2="297.5" class="net_2"/>
  <line x1="737" x2="737" y1="297.5" y2="342.5" class="net_2"/>
  <line x1="737" x2="800.1666666666666" y1="342.5" y2="342.5" class="net_2"/>
  <line x1="181" x2="327" y1="297.5" y2="297.5" class="net_2"/>
  <line x1="327" x2="327" y1="297.5" y2="151.5" class="net_2"/>
  <circle cx="327" cy="151.5" r="2" style="fill:#000" class="net_2"/>
  <line x1="327" x2="909" y1="151.5" y2="151.5" class="net_2"/>
  <line x1="181" x2="327" y1="297.5" y2="297.5" class="net_2"/>
  <line x1="327" x2="327" y1="297.5" y2="42.5" class="net_2"/>
  <line x1="327" x2="805" y1="42.5" y2="42.5" class="net_2"/>
  <line x1="181" x2="327" y1="297.5" y2="297.5" class="net_2"/>
  <line x1="327" x2="327" y1="297.5" y2="510.5" class="net_2"/>
  <line x1="327" x2="374" y1="510.5" y2="510.5" class="net_2"/>
  <line x1="690" x2="737" y1="510.5" y2="510.5" class="net_75,76,77,78,79,80,81,82"/>
  <line x1="737" x2="737" y1="510.5" y2="373.5" class="net_75,76,77,78,79,80,81,82"/>
  <line x1="737" x2="472" y1="373.5" y2="373.5" class="net_75,76,77,78,79,80,81,82"/>
  <line x1="472" x2="472" y1="373.5" y2="448" class="net_75,76,77,78,79,80,81,82"/>
  <circle cx="472" cy="373.5" r="2" style="fill:#000" class="net_75,76,77,78,79,80,81,82"/>
  <line x1="472" x2="513" y1="448" y2="448" class="net_75,76,77,78,79,80,81,82"/>
  <line x1="690" x2="737" y1="510.5" y2="510.5" class="net_75,76,77,78,79,80,81,82"/>
  <line x1="737" x2="737" y1="510.5" y2="382.5" class="net_75,76,77,78,79,80,81,82"/>
  <circle cx="737" cy="382.5" r="2" style="fill:#000" class="net_75,76,77,78,79,80,81,82"/>
  <line x1="737" x2="800.1666666666666" y1="382.5" y2="382.5" class="net_75,76,77,78,79,80,81,82"/>
  <line x1="690" x2="737" y1="510.5" y2="510.5" class="net_75,76,77,78,79,80,81,82"/>
  <line x1="737" x2="737" y1="510.5" y2="373.5" class="net_75,76,77,78,79,80,81,82"/>
  <line x1="737" x2="307" y1="373.5" y2="373.5" class="net_75,76,77,78,79,80,81,82"/>
  <line x1="307" x2="307" y1="373.5" y2="610.5" class="net_75,76,77,78,79,80,81,82"/>
  <line x1="307" x2="374" y1="610.5" y2="610.5" class="net_75,76,77,78,79,80,81,82"/>
  <line x1="184" x2="513" y1="468" y2="468" class="net_83"/>
  <line x1="181" x2="800.1666666666666" y1="362.5" y2="362.5" class="net_3"/>
  <line x1="181" x2="317" y1="362.5" y2="362.5" class="net_3"/>
  <line x1="317" x2="317" y1="362.5" y2="140.5" class="net_3"/>
  <line x1="317" x2="747" y1="140.5" y2="140.5" class="net_3"/>
  <line x1="747" x2="747" y1="140.5" y2="102.5" class="net_3"/>
  <circle cx="317" cy="362.5" r="2" style="fill:#000" class="net_3"/>
  <line x1="747" x2="805" y1="102.5" y2="102.5" class="net_3"/>
  <line x1="181" x2="317" y1="362.5" y2="362.5" class="net_3"/>
  <line x1="317" x2="317" y1="362.5" y2="570.5" class="net_3"/>
  <line x1="317" x2="374" y1="570.5" y2="570.5" class="net_3"/>
  <line x1="184" x2="267" y1="508" y2="508" class="net_85"/>
  <line x1="267" x2="267" y1="508" y2="675" class="net_85"/>
  <line x1="267" x2="747" y1="675" y2="675" class="net_85"/>
  <line x1="747" x2="747" y1="675" y2="402.5" class="net_85"/>
  <line x1="747" x2="800.1666666666666" y1="402.5" y2="402.5" class="net_85"/>
  <line x1="835" x2="859" y1="182.5" y2="182.5" class="net_91,92,93,94,95,96,97,98,99,100,101,102,103,104,105,106"/>
  <line x1="859" x2="859" y1="182.5" y2="171.5" class="net_91,92,93,94,95,96,97,98,99,100,101,102,103,104,105,106"/>
  <line x1="859" x2="909" y1="171.5" y2="171.5" class="net_91,92,93,94,95,96,97,98,99,100,101,102,103,104,105,106"/>
  <line x1="835" x2="859" y1="247.5" y2="247.5" class="net_107"/>
  <line x1="859" x2="859" y1="247.5" y2="191.5" class="net_107"/>
  <line x1="859" x2="909" y1="191.5" y2="191.5" class="net_107"/>
  <line x1="184" x2="297" y1="448" y2="448" class="net_13"/>
  <line x1="297" x2="297" y1="448" y2="129.5" class="net_13"/>
  <line x1="297" x2="737" y1="129.5" y2="129.5" class="net_13"/>
  <line x1="737" x2="737" y1="129.5" y2="62.5" class="net_13"/>
  <circle cx="297" cy="448" r="2" style="fill:#000" class="net_13"/>
  <line x1="737" x2="805" y1="62.5" y2="62.5" class="net_13"/>
  <line x1="184" x2="297" y1="448" y2="448" class="net_13"/>
  <line x1="297" x2="297" y1="448" y2="686" class="net_13"/>
  <line x1="297" x2="909" y1="686" y2="686" class="net_13"/>
  <line x1="678.6666666666666" x2="805" y1="82.5" y2="82.5" class="net_39,40,41,42,43,44,45,46"/>
  <line x1="37" x2="96" y1="143.5" y2="143.5" class="net_86,87,88,89"/>
  <line x1="96" x2="96" y1="143.5" y2="530.5" class="net_86,87,88,89"/>
  <circle cx="96" cy="530.5" r="2" style="fill:#000" class="net_86,87,88,89"/>
  <line x1="96" x2="374" y1="530.5" y2="530.5" class="net_86,87,88,89"/>
  <line x1="37" x2="96" y1="143.5" y2="143.5" class="net_86,87,88,89"/>
  <line x1="96" x2="96" y1="143.5" y2="552.5" class="net_86,87,88,89"/>
  <line x1="96" x2="277" y1="552.5" y2="552.5" class="net_86,87,88,89"/>
  <line x1="277" x2="277" y1="552.5" y2="590.5" class="net_86,87,88,89"/>
  <line x1="277" x2="374" y1="590.5" y2="590.5" class="net_86,87,88,89"/>
  <line x1="37" x2="66" y1="163.5" y2="163.5" class="net_26,27,28,29"/>
  <line x1="66" x2="66" y1="163.5" y2="541.5" class="net_26,27,28,29"/>
  <line x1="66" x2="327" y1="541.5" y2="541.5" class="net_26,27,28,29"/>
  <line x1="327" x2="327" y1="541.5" y2="550.5" class="net_26,27,28,29"/>
  <line x1="327" x2="374" y1="550.5" y2="550.5" class="net_26,27,28,29"/>
  <line x1="184" x2="287" y1="488" y2="488" class="net_84"/>
  <line x1="287" x2="287" y1="488" y2="630.5" class="net_84"/>
  <line x1="287" x2="374" y1="630.5" y2="630.5" class="net_84"/>
  <line x1="940" x2="981" y1="131.5" y2="131.5" class="net_22,23,24,25,26,27,28,29,86,87,88,89,71,72,73,74"/>
  <line x1="981" x2="981" y1="131.5" y2="706" class="net_22,23,24,25,26,27,28,29,86,87,88,89,71,72,73,74"/>
  <line x1="981" x2="12" y1="706" y2="706" class="net_22,23,24,25,26,27,28,29,86,87,88,89,71,72,73,74"/>
  <line x1="12" x2="12" y1="706" y2="113.5" class="net_22,23,24,25,26,27,28,29,86,87,88,89,71,72,73,74"/>
  <line x1="12" x2="32" y1="113.5" y2="113.5" class="net_22,23,24,25,26,27,28,29,86,87,88,89,71,72,73,74"/>
</svg>
